<svg xmlns="http://www.w3.org/2000/svg" xmlns:xlink="http://www.w3.org/1999/xlink" version="1.1" x="0px" y="0px" viewBox="0 0 100 125" enable-background="new 0 0 100 100" xml:space="preserve"><g><path d="M54.79,98.498c-2.968,0-6.04-0.269-9.131-0.801c-13.465-2.484-24.209-9.373-31.957-20.479   C5.932,66.075,3.2,53.641,5.583,40.261c2.389-13.406,9.253-24.184,20.404-32.035c4.236-2.956,8.803-5.208,13.581-6.699   c0.839-0.264,1.759,0.058,2.254,0.791c0.494,0.732,0.449,1.703-0.111,2.386c-4.677,5.709-7.77,12.652-9.192,20.635   c-2.188,12.277,0.297,23.704,7.386,33.963C47.222,69.691,56.86,75.83,69.36,78.058c7.54,1.342,14.704,0.961,21.463-1.148   c0.851-0.266,1.774,0.064,2.266,0.808c0.49,0.744,0.43,1.723-0.149,2.4c-3.057,3.579-6.529,6.735-10.319,9.38   C74.139,95.468,64.773,98.498,54.79,98.498z M34.725,7.729c-2.222,1.07-4.375,2.331-6.441,3.772   C17.889,18.821,11.75,28.459,9.522,40.962c-2.191,12.298,0.319,23.726,7.461,33.968c7.125,10.211,17.009,16.547,29.378,18.829   c12.328,2.115,23.823-0.4,33.963-7.539c1.746-1.218,3.387-2.521,4.945-3.93c-2.389,0.37-4.812,0.556-7.255,0.556   c-0.001,0-0.001,0-0.001,0c-3.035,0-6.183-0.286-9.354-0.852c-13.402-2.388-24.181-9.252-32.035-20.404   c-7.72-11.173-10.422-23.601-8.043-36.953C29.691,18.404,31.751,12.741,34.725,7.729z"/></g><text x="0" y="115" fill="#000000" font-size="5px" font-weight="bold" font-family="'Helvetica Neue', Helvetica, Arial-Unicode, Arial, Sans-serif">Created by Jardson Almeida</text><text x="0" y="120" fill="#000000" font-size="5px" font-weight="bold" font-family="'Helvetica Neue', Helvetica, Arial-Unicode, Arial, Sans-serif">from the Noun Project</text></svg>